<svg xmlns="http://www.w3.org/2000/svg" xmlns:xlink="http://www.w3.org/1999/xlink" width="1920" zoomAndPan="magnify" viewBox="0 0 1440 809.999993" height="1080" preserveAspectRatio="xMidYMid meet" version="1.0"><defs><g/><clipPath id="f9bfbf0a66"><path d="M 427.933594 440.277344 L 484 440.277344 L 484 502.527344 L 427.933594 502.527344 Z M 427.933594 440.277344 " clip-rule="nonzero"/></clipPath></defs><g clip-path="url(#f9bfbf0a66)"><path fill="#040d7d" d="M 481.390625 489.449219 C 482.339844 488.09375 483.1875 486.660156 483.917969 485.160156 L 478.21875 485.160156 C 474.207031 490.191406 468.019531 493.414062 461.082031 493.414062 C 454.144531 493.414062 447.960938 490.191406 443.945312 485.160156 L 427.9375 485.160156 C 428.078125 485.496094 428.222656 485.832031 428.371094 486.167969 L 435.15625 490.644531 L 442.746094 486.265625 L 443.757812 488.019531 L 435.082031 493.027344 L 430.804688 490.203125 C 433.488281 493.792969 436.929688 496.78125 440.886719 498.941406 L 445.25 499.667969 L 450.402344 492.578125 L 452.039062 493.769531 L 446.542969 501.335938 C 449.472656 502.25 452.589844 502.738281 455.824219 502.738281 C 456.6875 502.738281 457.542969 502.703125 458.386719 502.632812 L 459.960938 495.226562 L 461.945312 495.648438 L 460.511719 502.390625 C 464.214844 501.832031 467.707031 500.621094 470.863281 498.882812 L 469.777344 493.761719 L 471.757812 493.339844 L 472.703125 497.789062 C 475.515625 495.980469 478.015625 493.730469 480.113281 491.140625 L 478.144531 488.429688 L 479.785156 487.238281 Z M 443.933594 457.859375 C 447.949219 452.820312 454.136719 449.589844 461.082031 449.589844 C 468.027344 449.589844 474.214844 452.820312 478.230469 457.859375 L 483.917969 457.859375 C 482.652344 455.257812 481.035156 452.859375 479.128906 450.722656 L 476.597656 453 L 475.242188 451.492188 L 477.730469 449.253906 C 475.445312 447.003906 472.8125 445.101562 469.925781 443.636719 L 467.796875 448.417969 L 465.945312 447.59375 L 468.085938 442.78125 C 464.925781 441.429688 461.492188 440.585938 457.894531 440.351562 L 457.894531 447.8125 L 455.867188 447.8125 L 455.867188 440.28125 C 455.851562 440.28125 455.839844 440.28125 455.824219 440.28125 C 452.496094 440.28125 449.289062 440.804688 446.28125 441.765625 L 445.035156 443.28125 L 448.601562 451.285156 L 446.746094 452.109375 L 442.753906 443.140625 C 440.515625 444.171875 438.417969 445.464844 436.5 446.972656 L 435.011719 452.375 L 441.101562 457.859375 Z M 438.070312 457.859375 L 432.722656 453.042969 L 433.714844 449.457031 C 431.910156 451.261719 430.328125 453.292969 429.007812 455.496094 C 428.78125 455.945312 428.566406 456.402344 428.359375 456.859375 L 428.511719 457.859375 Z M 458.351562 488.757812 C 454.492188 488.757812 450.933594 487.492188 448.0625 485.355469 C 451.488281 488.617188 456.128906 490.621094 461.238281 490.621094 C 466.445312 490.621094 471.167969 488.539062 474.617188 485.160156 L 468.894531 485.160156 C 465.976562 487.414062 462.320312 488.757812 458.351562 488.757812 Z M 461.238281 452.398438 C 456.128906 452.398438 451.488281 454.402344 448.0625 457.664062 C 450.933594 455.527344 454.492188 454.261719 458.351562 454.261719 C 462.320312 454.261719 465.980469 455.605469 468.894531 457.859375 L 474.617188 457.859375 C 471.167969 454.480469 466.445312 452.398438 461.238281 452.398438 " fill-opacity="1" fill-rule="nonzero"/></g><g fill="#f6f6f6" fill-opacity="1"><g transform="translate(936.559882, 326.763167)"><g><path d="M 11.03125 -13.921875 C 11.03125 -11.703125 10.171875 -10.171875 8.453125 -9.328125 C 9.035156 -9.078125 9.488281 -8.695312 9.8125 -8.1875 C 10.144531 -7.675781 10.3125 -7.019531 10.3125 -6.21875 C 10.3125 -5.425781 10.191406 -4.671875 9.953125 -3.953125 C 9.722656 -3.234375 9.359375 -2.582031 8.859375 -2 C 7.816406 -0.757812 6.160156 -0.101562 3.890625 -0.03125 L 1.484375 0.046875 C 1.316406 0.0234375 1.234375 -0.046875 1.234375 -0.171875 L 3.15625 -17.015625 C 3.164062 -17.148438 3.195312 -17.238281 3.25 -17.28125 C 3.300781 -17.332031 3.769531 -17.390625 4.65625 -17.453125 C 5.539062 -17.515625 6.378906 -17.546875 7.171875 -17.546875 C 8.515625 -17.546875 9.492188 -17.222656 10.109375 -16.578125 C 10.722656 -15.929688 11.03125 -15.046875 11.03125 -13.921875 Z M 5.578125 -8.21875 C 5.265625 -8.21875 5.0625 -8.210938 4.96875 -8.203125 L 4.359375 -2.75 C 5.429688 -2.75 6.238281 -3.085938 6.78125 -3.765625 C 7.332031 -4.453125 7.609375 -5.347656 7.609375 -6.453125 C 7.609375 -6.972656 7.425781 -7.394531 7.0625 -7.71875 C 6.707031 -8.050781 6.210938 -8.21875 5.578125 -8.21875 Z M 5.15625 -9.984375 C 7.300781 -9.992188 8.375 -11.128906 8.375 -13.390625 C 8.375 -14.578125 7.757812 -15.171875 6.53125 -15.171875 C 6.1875 -15.171875 5.921875 -15.15625 5.734375 -15.125 Z M 5.15625 -9.984375 "/></g></g></g><g fill="#f6f6f6" fill-opacity="1"><g transform="translate(949.778613, 326.763167)"><g><path d="M 5.984375 -17.171875 L 4.703125 -5.703125 C 4.597656 -4.816406 4.546875 -4.1875 4.546875 -3.8125 C 4.546875 -3.4375 4.648438 -3.117188 4.859375 -2.859375 C 5.066406 -2.597656 5.40625 -2.46875 5.875 -2.46875 C 6.34375 -2.46875 6.695312 -2.703125 6.9375 -3.171875 C 7.1875 -3.648438 7.375 -4.40625 7.5 -5.4375 L 8.8125 -17.109375 C 8.832031 -17.265625 8.929688 -17.347656 9.109375 -17.359375 L 11.375 -17.453125 C 11.5625 -17.441406 11.65625 -17.351562 11.65625 -17.1875 L 10.359375 -5.703125 C 10.097656 -3.347656 9.492188 -1.738281 8.546875 -0.875 C 7.773438 -0.175781 6.769531 0.171875 5.53125 0.171875 C 4.300781 0.171875 3.359375 -0.148438 2.703125 -0.796875 C 2.054688 -1.441406 1.734375 -2.394531 1.734375 -3.65625 C 1.734375 -4.257812 1.769531 -4.890625 1.84375 -5.546875 L 3.171875 -17.109375 C 3.179688 -17.203125 3.203125 -17.265625 3.234375 -17.296875 C 3.273438 -17.328125 3.347656 -17.347656 3.453125 -17.359375 L 5.703125 -17.4375 C 5.890625 -17.425781 5.984375 -17.335938 5.984375 -17.171875 Z M 5.984375 -17.171875 "/></g></g></g><g fill="#f6f6f6" fill-opacity="1"><g transform="translate(963.579344, 326.763167)"><g><path d="M 0.984375 0.171875 C 0.796875 0.171875 0.703125 0.0820312 0.703125 -0.09375 L 0.984375 -2.4375 C 1.015625 -2.601562 1.113281 -2.691406 1.28125 -2.703125 C 2.4375 -2.828125 3.203125 -3.015625 3.578125 -3.265625 C 3.953125 -3.515625 4.140625 -4.007812 4.140625 -4.75 C 4.140625 -5.5 3.945312 -6.472656 3.5625 -7.671875 C 3.1875 -8.867188 2.941406 -9.664062 2.828125 -10.0625 C 2.472656 -11.332031 2.296875 -12.367188 2.296875 -13.171875 C 2.296875 -13.984375 2.425781 -14.675781 2.6875 -15.25 C 2.945312 -15.820312 3.320312 -16.28125 3.8125 -16.625 C 4.75 -17.28125 6.007812 -17.609375 7.59375 -17.609375 C 7.800781 -17.609375 7.90625 -17.519531 7.90625 -17.34375 L 7.59375 -15.015625 C 7.570312 -14.828125 7.476562 -14.726562 7.3125 -14.71875 C 5.875 -14.625 5.15625 -14.195312 5.15625 -13.4375 C 5.15625 -12.726562 5.460938 -11.347656 6.078125 -9.296875 C 6.691406 -7.242188 7 -5.769531 7 -4.875 C 7 -1.507812 4.992188 0.171875 0.984375 0.171875 Z M 0.984375 0.171875 "/></g></g></g><g fill="#f6f6f6" fill-opacity="1"><g transform="translate(973.473954, 326.763167)"><g><path d="M 8.421875 -0.5 C 8.410156 -0.414062 8.382812 -0.351562 8.34375 -0.3125 C 8.3125 -0.269531 7.945312 -0.1875 7.25 -0.0625 C 6.5625 0.0625 5.863281 0.125 5.15625 0.125 C 3.988281 0.125 3.09375 -0.25 2.46875 -1 C 1.851562 -1.757812 1.546875 -2.785156 1.546875 -4.078125 C 1.546875 -6.390625 1.820312 -9.070312 2.375 -12.125 C 2.664062 -13.757812 3.023438 -14.910156 3.453125 -15.578125 C 3.898438 -16.273438 4.4375 -16.757812 5.0625 -17.03125 C 5.84375 -17.375 6.675781 -17.546875 7.5625 -17.546875 C 8.457031 -17.546875 9.054688 -17.519531 9.359375 -17.46875 C 9.660156 -17.425781 9.832031 -17.398438 9.875 -17.390625 C 9.96875 -17.359375 10.015625 -17.265625 10.015625 -17.109375 L 9.765625 -15.03125 C 9.734375 -14.832031 9.65625 -14.734375 9.53125 -14.734375 C 9.414062 -14.734375 9.140625 -14.765625 8.703125 -14.828125 C 8.273438 -14.898438 7.925781 -14.9375 7.65625 -14.9375 C 6.9375 -14.9375 6.390625 -14.753906 6.015625 -14.390625 C 5.648438 -14.023438 5.375 -13.328125 5.1875 -12.296875 C 5 -11.273438 4.820312 -9.898438 4.65625 -8.171875 C 4.488281 -6.441406 4.40625 -5.117188 4.40625 -4.203125 C 4.40625 -3.117188 4.878906 -2.578125 5.828125 -2.578125 C 6.109375 -2.578125 6.59375 -2.625 7.28125 -2.71875 C 7.96875 -2.8125 8.359375 -2.859375 8.453125 -2.859375 C 8.609375 -2.859375 8.6875 -2.765625 8.6875 -2.578125 Z M 8.421875 -0.5 "/></g></g></g><g fill="#f6f6f6" fill-opacity="1"><g transform="translate(985.159338, 326.763167)"><g><path d="M 8.265625 -17.1875 L 9.5625 -0.328125 C 9.5625 -0.148438 9.46875 -0.0546875 9.28125 -0.046875 L 6.9375 0.046875 C 6.78125 0.046875 6.703125 -0.0234375 6.703125 -0.171875 L 6.53125 -3.859375 L 4 -3.765625 L 3.15625 -0.3125 C 3.132812 -0.207031 3.101562 -0.132812 3.0625 -0.09375 C 3.03125 -0.0625 2.960938 -0.0390625 2.859375 -0.03125 L 0.546875 0.046875 C 0.398438 0.046875 0.328125 -0.0234375 0.328125 -0.171875 L 5.234375 -17.109375 C 5.285156 -17.265625 5.390625 -17.347656 5.546875 -17.359375 L 8 -17.453125 C 8.15625 -17.441406 8.242188 -17.351562 8.265625 -17.1875 Z M 6.140625 -12.5625 L 4.578125 -6.140625 L 6.4375 -6.21875 Z M 6.140625 -12.5625 "/></g></g></g><g fill="#f6f6f6" fill-opacity="1"><g transform="translate(997.852031, 326.763167)"><g><path d="M 10.75 -0.265625 C 10.75 -0.117188 10.648438 -0.046875 10.453125 -0.046875 L 7.9375 0.046875 C 7.820312 0.0351562 7.738281 -0.0351562 7.6875 -0.171875 L 4.875 -7.28125 L 4.09375 -0.3125 C 4.070312 -0.132812 3.976562 -0.0390625 3.8125 -0.03125 L 1.484375 0.046875 C 1.316406 0.0234375 1.234375 -0.046875 1.234375 -0.171875 L 3.171875 -17.015625 C 3.179688 -17.148438 3.210938 -17.238281 3.265625 -17.28125 C 3.316406 -17.332031 3.710938 -17.390625 4.453125 -17.453125 C 5.191406 -17.515625 6.175781 -17.546875 7.40625 -17.546875 C 8.632812 -17.546875 9.582031 -17.21875 10.25 -16.5625 C 10.925781 -15.914062 11.265625 -15.078125 11.265625 -14.046875 C 11.265625 -13.015625 11.140625 -12.101562 10.890625 -11.3125 C 10.640625 -10.53125 10.226562 -9.828125 9.65625 -9.203125 C 9.09375 -8.578125 8.390625 -8.109375 7.546875 -7.796875 L 10.71875 -0.40625 C 10.738281 -0.351562 10.75 -0.304688 10.75 -0.265625 Z M 5.734375 -14.9375 L 5.109375 -9.375 C 6.492188 -9.457031 7.445312 -10.085938 7.96875 -11.265625 C 8.25 -11.898438 8.390625 -12.546875 8.390625 -13.203125 C 8.390625 -13.867188 8.253906 -14.332031 7.984375 -14.59375 C 7.710938 -14.863281 7.316406 -15 6.796875 -15 C 6.285156 -15 5.929688 -14.976562 5.734375 -14.9375 Z M 5.734375 -14.9375 "/></g></g></g></svg>